<svg width="403" height="512" viewBox="0 0 403 512" fill="none" xmlns="http://www.w3.org/2000/svg">
<mask id="path-1-outside-1_6:519" maskUnits="userSpaceOnUse" x="2.73291" y="0.00012207" width="401" height="445" fill="black">
<rect fill="white" x="2.73291" y="0.00012207" width="401" height="445"/>
<path fill-rule="evenodd" clip-rule="evenodd" d="M40.1606 271.238C27.0616 252.274 19.28 225.696 19.28 189.098C19.28 81.0134 113.642 21.1975 199.921 9.25409C249.786 2.35131 284.354 24.5726 300.628 60.5102C335.229 65.5416 371.645 107.305 387.692 164.094C400.187 208.317 398.433 310.473 368.42 349.737C355.166 360.361 346.376 371.39 338.626 381.116C330.715 391.043 323.888 399.611 314.5 405C308.302 408.558 302.492 411.546 297.05 414H246.74C244.101 399.708 242.706 383.555 241.969 370.473C288.317 354.531 335 314.724 335 265.137C335 257.395 334.692 249.679 334.239 241.968C341.625 238.977 347 229.825 347 219C347 206.599 339.945 196.394 330.895 195.132C330.666 190.536 330.527 185.774 330.527 180.495C330.527 123.664 272.101 80.1431 201.175 80L201 80.0001L200.905 80.0002L200.824 80.0003C129.898 80.1434 71.4724 123.664 71.4724 180.495C71.4724 185.735 71.3355 190.465 71.1098 195.029C61.5821 195.648 53.9999 206.143 53.9999 219C53.9999 230.298 59.855 239.773 67.7401 242.324C67.2979 249.917 66.9999 257.514 66.9999 265.137C66.9999 316.124 116.357 356.772 163.956 371.766C163.201 384.61 161.813 400.175 159.26 414H100.994C80.6558 414 61.8665 421.874 48.7375 434.979L48.6399 434.941L48.5143 434.891C11.813 420.408 0.713857 361.399 23.7236 303.09C28.2965 291.502 33.8726 280.814 40.1606 271.238Z"/>
</mask>
<path fill-rule="evenodd" clip-rule="evenodd" d="M40.1606 271.238C27.0616 252.274 19.28 225.696 19.28 189.098C19.28 81.0134 113.642 21.1975 199.921 9.25409C249.786 2.35131 284.354 24.5726 300.628 60.5102C335.229 65.5416 371.645 107.305 387.692 164.094C400.187 208.317 398.433 310.473 368.42 349.737C355.166 360.361 346.376 371.39 338.626 381.116C330.715 391.043 323.888 399.611 314.5 405C308.302 408.558 302.492 411.546 297.05 414H246.74C244.101 399.708 242.706 383.555 241.969 370.473C288.317 354.531 335 314.724 335 265.137C335 257.395 334.692 249.679 334.239 241.968C341.625 238.977 347 229.825 347 219C347 206.599 339.945 196.394 330.895 195.132C330.666 190.536 330.527 185.774 330.527 180.495C330.527 123.664 272.101 80.1431 201.175 80L201 80.0001L200.905 80.0002L200.824 80.0003C129.898 80.1434 71.4724 123.664 71.4724 180.495C71.4724 185.735 71.3355 190.465 71.1098 195.029C61.5821 195.648 53.9999 206.143 53.9999 219C53.9999 230.298 59.855 239.773 67.7401 242.324C67.2979 249.917 66.9999 257.514 66.9999 265.137C66.9999 316.124 116.357 356.772 163.956 371.766C163.201 384.61 161.813 400.175 159.26 414H100.994C80.6558 414 61.8665 421.874 48.7375 434.979L48.6399 434.941L48.5143 434.891C11.813 420.408 0.713857 361.399 23.7236 303.09C28.2965 291.502 33.8726 280.814 40.1606 271.238Z" fill="#150C0C"/>
<path d="M365.557 346.943L339.533 373.616L345.259 379.203L371.283 352.53L365.557 346.943ZM40.1606 271.238L46.8475 275.63L49.8055 271.126L46.743 266.692L40.1606 271.238ZM199.921 9.25409L198.824 1.32965L199.921 9.25409ZM300.628 60.5102L293.34 63.8102L295.145 67.7971L299.476 68.4269L300.628 60.5102ZM387.692 164.094L395.39 161.919L395.39 161.919L387.692 164.094ZM368.42 349.737L373.423 355.979L374.184 355.37L374.776 354.595L368.42 349.737ZM338.626 381.116L332.37 376.13L338.626 381.116ZM314.5 405L310.517 398.062L314.5 405ZM297.05 414V422H298.771L300.339 421.293L297.05 414ZM246.74 414L238.873 415.453L240.081 422H246.74V414ZM241.969 370.473L239.367 362.908L233.641 364.877L233.982 370.923L241.969 370.473ZM334.239 241.968L331.236 234.553L325.915 236.707L326.253 242.438L334.239 241.968ZM330.895 195.132L322.905 195.529L323.234 202.14L329.79 203.055L330.895 195.132ZM201.175 80L201.191 72L201.181 72L201.171 72L201.175 80ZM201 80.0001L200.996 72.0001L200.99 72.0001L201 80.0001ZM200.905 80.0002L200.894 72.0002L200.891 72.0002L200.905 80.0002ZM200.824 80.0003L200.811 72.0004H200.808L200.824 80.0003ZM71.1098 195.029L71.6281 203.012L78.7475 202.55L79.1 195.424L71.1098 195.029ZM67.7401 242.324L75.7265 242.789L76.0861 236.616L70.2028 234.713L67.7401 242.324ZM163.956 371.766L171.942 372.236L172.308 366.01L166.36 364.136L163.956 371.766ZM159.26 414V422H165.918L167.127 415.453L159.26 414ZM48.7375 434.979L45.8311 442.432L50.6945 444.329L54.389 440.641L48.7375 434.979ZM48.6399 434.941L45.7149 442.387L45.7242 442.39L45.7335 442.394L48.6399 434.941ZM48.5143 434.891L45.5777 442.333L45.5893 442.337L48.5143 434.891ZM23.7236 303.09L31.1651 306.027H31.1651L23.7236 303.09ZM11.28 189.098C11.28 226.788 19.2939 255.105 33.5781 275.785L46.743 266.692C34.8292 249.443 27.28 224.603 27.28 189.098H11.28ZM198.824 1.32965C110.658 13.5342 11.28 75.2351 11.28 189.098H27.28C27.28 86.7916 116.626 28.8607 201.018 17.1785L198.824 1.32965ZM307.915 57.2102C299.144 37.8405 285.302 21.8969 266.69 11.7871C248.069 1.67309 225.195 -2.32091 198.824 1.32965L201.018 17.1785C224.512 13.9263 243.854 17.5915 259.053 25.8469C274.259 34.1064 285.838 47.2422 293.34 63.8102L307.915 57.2102ZM395.39 161.919C387.09 132.543 373.472 106.85 357.214 87.7133C341.066 68.7051 321.704 55.4908 301.779 52.5934L299.476 68.4269C314.152 70.561 330.299 80.744 345.021 98.0725C359.633 115.273 372.247 138.856 379.993 166.27L395.39 161.919ZM374.776 354.595C383.179 343.601 389.261 328.722 393.583 312.436C397.931 296.049 400.635 277.705 401.975 259.358C404.643 222.842 401.979 185.237 395.39 161.919L379.993 166.27C385.9 187.174 388.607 222.758 386.018 258.192C384.73 275.82 382.149 293.141 378.118 308.333C374.059 323.627 368.667 336.241 362.064 344.878L374.776 354.595ZM344.883 386.101C352.632 376.377 360.937 365.987 373.423 355.979L363.416 343.495C349.395 354.734 340.121 366.404 332.37 376.13L344.883 386.101ZM318.482 411.938C329.436 405.651 337.191 395.753 344.883 386.101L332.37 376.13C324.239 386.333 318.34 393.572 310.517 398.062L318.482 411.938ZM300.339 421.293C306.051 418.717 312.093 415.606 318.482 411.938L310.517 398.062C304.511 401.51 298.933 404.375 293.762 406.707L300.339 421.293ZM246.74 422H297.05V406H246.74V422ZM233.982 370.923C234.727 384.142 236.145 400.678 238.873 415.453L254.607 412.548C252.057 398.737 250.686 382.967 249.956 370.023L233.982 370.923ZM327 265.137C327 287.296 316.578 307.757 300.101 324.874C283.615 342.001 261.484 355.301 239.367 362.908L244.571 378.038C268.803 369.703 293.187 355.128 311.629 335.97C330.081 316.8 343 292.564 343 265.137H327ZM326.253 242.438C326.701 250.053 327 257.602 327 265.137H343C343 257.188 342.684 249.305 342.225 241.498L326.253 242.438ZM339 219C339 227.641 334.716 233.143 331.236 234.553L337.242 249.383C348.533 244.81 355 232.01 355 219H339ZM329.79 203.055C333.337 203.55 339 208.794 339 219H355C355 204.403 346.554 189.239 332 187.208L329.79 203.055ZM322.527 180.495C322.527 185.92 322.67 190.815 322.905 195.529L338.885 194.734C338.662 190.257 338.527 185.629 338.527 180.495H322.527ZM201.159 88C269.79 88.1384 322.527 129.93 322.527 180.495H338.527C338.527 117.398 274.412 72.1477 201.191 72L201.159 88ZM201.004 88.0001L201.179 88L201.171 72L200.996 72.0001L201.004 88.0001ZM200.915 88.0002L201.01 88.0001L200.99 72.0001L200.894 72.0002L200.915 88.0002ZM200.838 88.0003L200.918 88.0002L200.891 72.0002L200.811 72.0004L200.838 88.0003ZM79.4724 180.495C79.4724 129.93 132.209 88.1388 200.841 88.0003L200.808 72.0004C127.588 72.1481 63.4724 117.398 63.4724 180.495H79.4724ZM79.1 195.424C79.3316 190.742 79.4724 185.88 79.4724 180.495H63.4724C63.4724 185.591 63.3395 190.188 63.1195 194.634L79.1 195.424ZM61.9999 219C61.9999 214.093 63.4557 209.917 65.4853 207.084C67.5233 204.239 69.7947 203.131 71.6281 203.012L70.5914 187.046C62.8972 187.545 56.6136 191.994 52.4786 197.766C48.3351 203.55 45.9999 211.05 45.9999 219H61.9999ZM70.2028 234.713C66.6812 233.573 61.9999 228.094 61.9999 219H45.9999C45.9999 232.503 53.0287 245.973 65.2774 249.936L70.2028 234.713ZM74.9999 265.137C74.9999 257.718 75.29 250.285 75.7265 242.789L59.7536 241.859C59.3058 249.548 58.9999 257.31 58.9999 265.137H74.9999ZM166.36 364.136C143.673 356.989 120.593 343.714 103.304 326.311C86.0214 308.914 74.9999 287.92 74.9999 265.137H58.9999C58.9999 293.341 72.6568 318.164 91.9529 337.587C111.242 357.004 136.64 371.549 161.552 379.397L166.36 364.136ZM167.127 415.453C169.766 401.158 171.179 385.219 171.942 372.236L155.97 371.297C155.223 384 153.859 399.192 151.393 412.548L167.127 415.453ZM100.994 422H159.26V406H100.994V422ZM54.389 440.641C65.9657 429.086 82.6997 422 100.994 422V406C78.6119 406 57.7672 414.663 43.0859 429.317L54.389 440.641ZM45.7335 442.394L45.8311 442.432L51.6439 427.525L51.5463 427.487L45.7335 442.394ZM45.5893 442.337L45.7149 442.387L51.5649 427.495L51.4393 427.445L45.5893 442.337ZM16.282 300.154C4.31098 330.49 1.05924 361.353 5.86518 386.904C10.6481 412.333 23.761 433.724 45.5777 442.333L51.4508 427.45C36.5663 421.576 25.779 406.221 21.5894 383.947C17.4229 361.795 20.1264 334 31.1651 306.027L16.282 300.154ZM33.4736 266.847C26.8794 276.888 21.0523 288.065 16.282 300.154L31.1651 306.027C35.5408 294.939 40.8658 284.739 46.8475 275.63L33.4736 266.847Z" fill="#150C0C" mask="url(#path-1-outside-1_6:519)"/>
<path d="M336.54 166.058C342.272 166.058 347.594 162.901 352 157.5L342 124L280 77.5L182.5 43L76 81L67 166.058C92 191.058 126 152.5 153 152.5C180 152.5 140.5 179.5 187 179.5C246.5 179.5 279.728 128.049 291.5 111C291.5 111 305.905 166.058 336.54 166.058Z" fill="#150C0C"/>
<path fill-rule="evenodd" clip-rule="evenodd" d="M30.4998 432.5C8.49978 408 -7.50021 360.5 17.4998 303C21.6743 292.422 26.9095 282.445 32.4998 273.5L115.5 363.5C111.352 372.115 118.81 377.895 124.75 382.499C128.119 385.11 131 387.343 131 389.5C131.301 399.948 131.961 409.828 132.573 418.988C135.007 455.42 136.68 480.46 112 484.5C100.038 448.614 72.9459 443.718 52.569 440.035C42.9508 438.297 34.8287 436.829 30.4998 432.5Z" fill="#150C0C"/>
<path fill-rule="evenodd" clip-rule="evenodd" d="M255.855 364.98C255.951 365.124 256.055 365.264 256.166 365.398C262.984 373.672 273.99 389.071 276.451 418.892C276.484 419.291 276.564 419.697 276.691 420.077C288.627 455.918 309.281 476.784 334.216 470.2C336.46 469.607 337.777 467.341 337.601 465.027C335.483 437.158 349.254 424.052 362.644 411.309C374.481 400.044 386.019 389.062 386.02 368.417C386.021 351.456 383.646 335.382 379.397 321C370.896 292.224 354.897 270.222 335.43 261.436C335.278 261.368 335.126 261.3 334.974 261.234C334.991 262.534 335 263.835 335 265.137C335 309.758 297.198 346.461 255.855 364.98Z" fill="#150C0C"/>
<path d="M352 157.5C347.594 162.901 342.272 166.058 336.54 166.058C305.905 166.058 291.5 111 291.5 111C279.728 128.049 246.5 179.5 187 179.5C140.5 179.5 180 152.5 153 152.5C126 152.5 92 191.058 67 166.058" stroke="#150C0C" stroke-width="8" stroke-linejoin="round"/>
<mask id="path-7-outside-2_6:519" maskUnits="userSpaceOnUse" x="272.023" y="323" width="118" height="148" fill="black">
<rect fill="white" x="272.023" y="323" width="118" height="148"/>
</mask>
<path d="M383 369.5L387 369.5V369.5L383 369.5ZM359.103 413.625L361.631 416.725L359.103 413.625ZM337.732 460.955L341.702 460.465L341.702 460.465L337.732 460.955ZM382.463 355.896L386.456 355.654V355.654L382.463 355.896ZM333.435 466.655L333.05 462.674H333.05L333.435 466.655ZM276.171 409.191L280.083 408.355L280.083 408.355L276.171 409.191ZM379 369.5C378.999 381.096 376.169 388.943 372.139 394.985C368.022 401.159 362.526 405.674 356.576 410.524L361.631 416.725C367.455 411.977 373.907 406.752 378.794 399.424C383.769 391.965 386.999 382.549 387 369.5L379 369.5ZM356.576 410.524C350.383 415.573 343.613 421.04 338.998 428.917C334.283 436.967 331.998 447.157 333.762 461.445L341.702 460.465C340.111 447.58 342.232 439.224 345.901 432.961C349.671 426.527 355.264 421.916 361.631 416.725L356.576 410.524ZM381.845 323.375C377.062 334.136 377.803 345.14 378.47 356.138L386.456 355.654C385.768 344.31 385.295 335.309 389.155 326.625L381.845 323.375ZM378.47 356.138C378.734 360.494 379 364.893 379 369.5L387 369.5C387 364.615 386.718 359.98 386.456 355.654L378.47 356.138ZM333.05 462.674C322.632 463.681 314.603 462.15 308.317 459.148C302.027 456.145 297.222 451.547 293.447 446.021C285.783 434.799 282.607 420.17 280.083 408.355L272.259 410.026C274.723 421.558 278.14 437.792 286.841 450.533C291.249 456.987 297.07 462.644 304.87 466.368C312.674 470.094 322.199 471.761 333.82 470.636L333.05 462.674ZM280.083 408.355C280.033 408.123 279.984 407.893 279.935 407.664L272.112 409.336C272.161 409.565 272.21 409.795 272.259 410.026L280.083 408.355ZM333.762 461.445C333.807 461.812 333.702 462.147 333.535 462.373C333.382 462.581 333.218 462.657 333.05 462.674L333.82 470.636C339.15 470.121 342.281 465.158 341.702 460.465L333.762 461.445Z" fill="#150C0C" mask="url(#path-7-outside-2_6:519)"/>
<mask id="path-9-outside-3_6:519" maskUnits="userSpaceOnUse" x="-0.192383" y="270" width="140" height="220" fill="black">
<rect fill="white" x="-0.192383" y="270" width="140" height="220"/>
</mask>
<path d="M30.4998 432.5L27.5236 435.173L27.5954 435.252L27.6714 435.328L30.4998 432.5ZM17.4998 303L21.1681 304.595L21.1954 304.532L21.2206 304.468L17.4998 303ZM33.2328 274.947L36.5846 277.13L36.5846 277.13L33.2328 274.947ZM110.5 485L106.705 486.265L107.783 489.498L111.146 488.947L110.5 485ZM52.1095 440.138L52.8643 436.21H52.8643L52.1095 440.138ZM135.297 413.08L139.296 413.003L135.297 413.08ZM33.476 429.827C12.5148 406.484 -3.20378 360.65 21.1681 304.595L13.8315 301.405C-11.7967 360.35 4.48473 409.516 27.5236 435.173L33.476 429.827ZM21.2206 304.468C24.9496 295.019 30.4971 286.476 36.5846 277.13L29.8811 272.764C23.8731 281.988 17.8553 291.202 13.779 301.532L21.2206 304.468ZM36.5846 277.13C37.0056 276.483 37.4291 275.833 37.8536 275.18L31.146 270.82C30.7239 271.469 30.3024 272.117 29.8811 272.764L36.5846 277.13ZM114.295 483.735C108.007 464.874 97.784 453.828 86.3198 447.08C75.0315 440.436 62.7598 438.111 52.8643 436.21L51.3546 444.066C61.4032 445.997 72.336 448.132 82.2616 453.974C92.0112 459.713 101.011 469.182 106.705 486.265L114.295 483.735ZM52.8643 436.21C48.119 435.298 44.0321 434.507 40.5948 433.441C37.1451 432.371 34.8105 431.154 33.3282 429.672L27.6714 435.328C30.5033 438.16 34.2901 439.862 38.2249 441.082C42.1722 442.306 46.733 443.178 51.3546 444.066L52.8643 436.21ZM111.146 488.947C118.383 487.763 124.084 484.931 128.389 480.433C132.644 475.987 135.25 470.21 136.869 463.61C140.057 450.609 139.685 433.075 139.296 413.003L131.297 413.158C131.695 433.671 131.979 449.96 129.099 461.705C127.684 467.477 125.575 471.803 122.61 474.901C119.695 477.947 115.671 480.1 109.854 481.053L111.146 488.947ZM139.296 413.003C139.251 410.686 139.205 408.329 139.164 405.931L131.165 406.069C131.207 408.477 131.252 410.842 131.297 413.158L139.296 413.003Z" fill="#150C0C" mask="url(#path-9-outside-3_6:519)"/>
</svg>
