<svg width="519" height="519" viewBox="0 0 519 519" fill="none" xmlns="http://www.w3.org/2000/svg">
<g clip-path="url(#clip0_26:1421)">
<rect width="519" height="519" rx="259.5" fill="#F388A8"/>
<mask id="path-2-inside-1_26:1421" fill="white">
<path d="M88.0335 452.703C87.5513 414.21 120.498 386 158.994 386H358.334C398.418 386 432.139 416.482 430.592 456.536C429.321 489.455 424.727 527.634 412.102 556.447C403.651 575.736 382.522 584 361.462 584C304.935 584 223.155 584 159.556 584C138.497 584 117.318 575.883 108.052 556.971C92.8587 525.964 88.4522 486.123 88.0335 452.703Z"/>
</mask>
<path d="M88.0335 452.703C87.5513 414.21 120.498 386 158.994 386H358.334C398.418 386 432.139 416.482 430.592 456.536C429.321 489.455 424.727 527.634 412.102 556.447C403.651 575.736 382.522 584 361.462 584C304.935 584 223.155 584 159.556 584C138.497 584 117.318 575.883 108.052 556.971C92.8587 525.964 88.4522 486.123 88.0335 452.703Z" fill="#71102D"/>
<path d="M159.556 584V592V584ZM108.052 556.971L100.868 560.491L108.052 556.971ZM430.592 456.536L422.598 456.227L430.592 456.536ZM422.598 456.227C421.336 488.901 416.777 525.843 404.775 553.236L419.43 559.657C432.676 529.424 437.305 490.008 438.586 456.844L422.598 456.227ZM361.462 576C361.352 576 361.241 576 361.131 576C361.02 576 360.909 576 360.799 576C360.688 576 360.577 576 360.466 576C360.355 576 360.244 576 360.133 576C360.022 576 359.91 576 359.799 576C359.688 576 359.576 576 359.465 576C359.353 576 359.241 576 359.13 576C359.018 576 358.906 576 358.794 576C358.682 576 358.57 576 358.458 576C358.346 576 358.234 576 358.122 576C358.009 576 357.897 576 357.784 576C357.672 576 357.559 576 357.447 576C357.334 576 357.221 576 357.108 576C356.995 576 356.883 576 356.77 576C356.656 576 356.543 576 356.43 576C356.317 576 356.204 576 356.09 576C355.977 576 355.863 576 355.75 576C355.636 576 355.522 576 355.409 576C355.295 576 355.181 576 355.067 576C354.953 576 354.839 576 354.725 576C354.611 576 354.497 576 354.382 576C354.268 576 354.154 576 354.039 576C353.925 576 353.81 576 353.695 576C353.581 576 353.466 576 353.351 576C353.236 576 353.121 576 353.006 576C352.891 576 352.776 576 352.661 576C352.546 576 352.431 576 352.315 576C352.2 576 352.084 576 351.969 576C351.853 576 351.738 576 351.622 576C351.506 576 351.39 576 351.274 576C351.159 576 351.043 576 350.927 576C350.81 576 350.694 576 350.578 576C350.462 576 350.346 576 350.229 576C350.113 576 349.996 576 349.88 576C349.763 576 349.646 576 349.53 576C349.413 576 349.296 576 349.179 576C349.062 576 348.945 576 348.828 576C348.711 576 348.594 576 348.477 576C348.359 576 348.242 576 348.125 576C348.007 576 347.89 576 347.772 576C347.654 576 347.537 576 347.419 576C347.301 576 347.183 576 347.065 576C346.437 576 346.987 576 346.357 576C346.239 576 346.12 576 346.002 576C345.884 576 345.765 576 345.646 576C345.528 576 345.409 576 345.29 576C345.172 576 345.053 576 344.934 576C344.815 576 344.696 576 344.577 576C344.458 576 344.339 576 344.22 576C344.1 576 343.981 576 343.862 576C343.742 576 343.623 576 343.503 576C343.384 576 343.264 576 343.144 576C343.025 576 342.905 576 342.785 576C342.665 576 342.545 576 342.425 576C342.305 576 342.185 576 342.065 576C341.945 576 341.824 576 341.704 576C341.584 576 341.463 576 341.343 576C341.222 576 341.102 576 340.981 576C340.86 576 340.74 576 340.619 576C340.498 576 340.377 576 340.256 576C340.135 576 340.014 576 339.893 576C339.772 576 339.651 576 339.53 576C339.408 576 339.287 576 339.166 576C339.044 576 338.923 576 338.801 576C338.68 576 338.558 576 338.436 576C338.315 576 338.193 576 338.071 576C337.949 576 337.827 576 337.705 576C337.583 576 337.461 576 337.339 576C337.217 576 337.095 576 336.972 576C336.85 576 336.728 576 336.605 576C336.483 576 336.36 576 336.238 576C336.115 576 335.992 576 335.87 576C335.747 576 335.624 576 335.501 576C335.378 576 335.255 576 335.132 576C335.009 576 334.886 576 334.763 576C334.64 576 334.516 576 334.393 576C334.27 576 334.146 576 334.023 576C333.899 576 333.776 576 333.652 576C333.529 576 333.405 576 333.281 576C333.158 576 333.034 576 332.91 576C332.786 576 332.662 576 332.538 576C332.414 576 332.29 576 332.166 576C332.042 576 331.917 576 331.793 576C331.669 576 331.544 576 331.42 576C331.295 576 331.171 576 331.046 576C330.922 576 330.797 576 330.672 576C330.548 576 330.423 576 330.298 576C330.173 576 330.048 576 329.923 576C329.798 576 329.673 576 329.548 576C329.423 576 329.298 576 329.173 576C329.047 576 328.922 576 328.797 576C328.671 576 328.546 576 328.42 576C328.295 576 328.169 576 328.043 576C327.918 576 327.792 576 327.666 576C327.54 576 327.415 576 327.289 576C327.163 576 327.037 576 326.911 576C326.785 576 326.659 576 326.532 576C326.406 576 326.28 576 326.154 576C326.027 576 325.901 576 325.775 576C325.648 576 325.522 576 325.395 576C325.269 576 325.142 576 325.015 576C324.889 576 324.762 576 324.635 576C324.508 576 324.381 576 324.254 576C324.127 576 324 576 323.873 576C323.746 576 323.619 576 323.492 576C323.365 576 323.237 576 323.11 576C322.983 576 322.855 576 322.728 576C322.601 576 322.473 576 322.346 576C322.218 576 322.09 576 321.963 576C321.835 576 321.707 576 321.579 576C321.452 576 321.324 576 321.196 576C321.068 576 320.94 576 320.812 576C320.684 576 320.556 576 320.428 576C320.299 576 320.171 576 320.043 576C319.915 576 319.786 576 319.658 576C319.529 576 319.401 576 319.273 576C319.144 576 319.015 576 318.887 576C318.758 576 318.629 576 318.501 576C318.372 576 318.243 576 318.114 576C317.985 576 317.857 576 317.728 576C317.599 576 317.47 576 317.34 576C317.211 576 317.082 576 316.953 576C316.824 576 316.695 576 316.565 576C316.436 576 316.307 576 316.177 576C316.048 576 315.918 576 315.789 576C315.659 576 315.529 576 315.4 576C315.27 576 315.14 576 315.011 576C314.881 576 314.751 576 314.621 576C314.491 576 314.361 576 314.231 576C314.101 576 313.971 576 313.841 576C313.711 576 313.581 576 313.451 576C313.321 576 313.19 576 313.06 576C312.93 576 312.799 576 312.669 576C312.539 576 312.408 576 312.278 576C312.147 576 312.017 576 311.886 576C311.755 576 311.625 576 311.494 576C311.363 576 311.232 576 311.102 576C310.971 576 310.84 576 310.709 576C310.578 576 310.447 576 310.316 576C310.185 576 310.054 576 309.923 576C309.792 576 309.66 576 309.529 576C309.398 576 309.267 576 309.135 576C309.004 576 308.873 576 308.741 576C308.61 576 308.478 576 308.347 576C308.215 576 308.084 576 307.952 576C307.82 576 307.689 576 307.557 576C307.425 576 307.293 576 307.162 576C307.03 576 306.898 576 306.766 576C306.634 576 306.502 576 306.37 576C306.238 576 306.106 576 305.974 576C305.842 576 305.71 576 305.577 576C305.445 576 305.313 576 305.181 576C305.048 576 304.916 576 304.783 576C304.651 576 304.519 576 304.386 576C304.254 576 304.121 576 303.989 576C303.856 576 303.723 576 303.591 576C303.458 576 303.325 576 303.192 576C303.06 576 302.927 576 302.794 576C302.661 576 302.528 576 302.395 576C302.262 576 302.129 576 301.996 576C301.863 576 301.73 576 301.597 576C301.464 576 301.331 576 301.198 576C301.064 576 300.931 576 300.798 576C300.665 576 300.531 576 300.398 576C300.264 576 300.131 576 299.998 576C299.864 576 299.731 576 299.597 576C299.463 576 299.33 576 299.196 576C299.063 576 298.929 576 298.795 576C298.661 576 298.528 576 298.394 576C298.26 576 298.126 576 297.992 576C297.858 576 297.725 576 297.591 576C297.457 576 297.323 576 297.189 576C297.054 576 296.92 576 296.786 576C296.652 576 296.518 576 296.384 576C296.25 576 296.115 576 295.981 576C295.847 576 295.712 576 295.578 576C295.444 576 295.309 576 295.175 576C295.04 576 294.906 576 294.771 576C294.637 576 294.502 576 294.368 576C294.233 576 294.098 576 293.964 576C293.829 576 293.694 576 293.56 576C293.425 576 293.29 576 293.155 576C293.02 576 292.886 576 292.751 576C292.616 576 292.481 576 292.346 576C292.211 576 292.076 576 291.941 576C291.806 576 291.671 576 291.536 576C291.4 576 291.265 576 291.13 576C290.995 576 290.86 576 290.724 576C290.589 576 290.454 576 290.319 576C290.183 576 290.048 576 289.912 576C289.777 576 289.642 576 289.506 576C289.371 576 289.235 576 289.1 576C288.964 576 288.829 576 288.693 576C288.557 576 288.422 576 288.286 576C288.15 576 288.015 576 287.879 576C287.743 576 287.607 576 287.472 576C287.336 576 287.2 576 287.064 576C286.928 576 286.792 576 286.656 576C286.521 576 286.385 576 286.249 576C286.113 576 285.977 576 285.841 576C285.704 576 285.568 576 285.432 576C285.296 576 285.16 576 285.024 576C284.888 576 284.751 576 284.615 576C284.479 576 284.343 576 284.206 576C284.07 576 283.934 576 283.797 576C283.661 576 283.525 576 283.388 576C283.252 576 283.115 576 282.979 576C282.842 576 282.706 576 282.569 576C282.433 576 282.296 576 282.16 576C282.023 576 281.886 576 281.75 576C281.613 576 281.476 576 281.34 576C281.203 576 281.066 576 280.93 576C280.793 576 280.656 576 280.519 576C280.382 576 280.246 576 280.109 576C279.972 576 279.835 576 279.698 576C279.561 576 279.424 576 279.287 576C279.15 576 279.013 576 278.876 576C278.739 576 278.602 576 278.465 576C278.328 576 278.191 576 278.054 576C277.917 576 277.779 576 277.642 576C277.505 576 277.368 576 277.231 576C277.093 576 276.956 576 276.819 576C276.682 576 276.544 576 276.407 576C276.27 576 276.132 576 275.995 576C275.858 576 275.72 576 275.583 576C275.445 576 275.308 576 275.17 576C275.033 576 274.895 576 274.758 576C274.62 576 274.483 576 274.345 576C274.208 576 274.07 576 273.933 576C273.795 576 273.657 576 273.52 576C273.382 576 273.244 576 273.107 576C272.969 576 272.831 576 272.694 576C272.556 576 272.418 576 272.28 576C272.143 576 272.005 576 271.867 576C271.729 576 271.591 576 271.454 576C271.316 576 271.178 576 271.04 576C270.902 576 270.764 576 270.626 576C270.488 576 270.35 576 270.212 576C270.074 576 269.936 576 269.798 576C269.66 576 269.522 576 269.384 576C269.246 576 269.108 576 268.97 576C268.832 576 268.694 576 268.556 576C268.418 576 268.28 576 268.141 576C268.003 576 267.865 576 267.727 576C267.589 576 267.451 576 267.312 576C267.174 576 267.036 576 266.898 576C266.759 576 266.621 576 266.483 576C266.345 576 266.206 576 266.068 576C265.93 576 265.791 576 265.653 576C265.515 576 265.376 576 265.238 576C265.1 576 264.961 576 264.823 576C264.684 576 264.546 576 264.407 576C264.269 576 264.131 576 263.992 576C263.854 576 263.715 576 263.577 576C263.438 576 263.3 576 263.161 576C263.023 576 262.884 576 262.746 576C262.607 576 262.468 576 262.33 576C262.191 576 262.053 576 261.914 576C261.776 576 261.637 576 261.498 576C261.36 576 261.221 576 261.082 576C260.944 576 260.805 576 260.666 576C260.528 576 260.389 576 260.25 576C260.112 576 259.973 576 259.834 576C259.696 576 259.557 576 259.418 576C259.279 576 259.141 576 259.002 576C258.863 576 258.724 576 258.586 576C258.447 576 258.308 576 258.169 576C258.03 576 257.892 576 257.753 576C257.614 576 257.475 576 257.336 576C257.198 576 257.059 576 256.92 576C256.781 576 256.642 576 256.503 576C256.364 576 256.225 576 256.087 576C255.948 576 255.809 576 255.67 576C255.531 576 255.392 576 255.253 576C255.114 576 254.975 576 254.836 576C254.698 576 254.559 576 254.42 576C254.281 576 254.142 576 254.003 576C253.864 576 253.725 576 253.586 576C253.447 576 253.308 576 253.169 576C253.03 576 252.891 576 252.752 576C252.613 576 252.474 576 252.335 576C252.196 576 252.057 576 251.918 576C251.779 576 251.64 576 251.501 576C251.362 576 251.223 576 251.084 576C250.945 576 250.806 576 250.667 576C250.528 576 250.389 576 250.25 576C250.111 576 249.972 576 249.833 576C249.693 576 249.554 576 249.415 576C249.276 576 249.137 576 248.998 576C248.859 576 248.72 576 248.581 576C248.442 576 248.303 576 248.164 576C248.025 576 247.886 576 247.747 576C247.608 576 247.468 576 247.329 576C247.19 576 247.051 576 246.912 576C246.773 576 246.634 576 246.495 576C246.356 576 246.217 576 246.078 576C245.939 576 245.799 576 245.66 576C245.521 576 245.382 576 245.243 576C245.104 576 244.965 576 244.826 576C244.687 576 244.548 576 244.409 576C244.27 576 244.131 576 243.991 576C243.852 576 243.713 576 243.574 576C243.435 576 243.296 576 243.157 576C243.018 576 242.879 576 242.74 576C242.601 576 242.462 576 242.323 576C242.184 576 242.045 576 241.905 576C241.766 576 241.627 576 241.488 576C241.349 576 241.21 576 241.071 576C240.932 576 240.793 576 240.654 576C240.515 576 240.376 576 240.237 576C240.098 576 239.959 576 239.82 576C239.681 576 239.542 576 239.403 576C239.264 576 239.125 576 238.986 576C238.847 576 238.708 576 238.569 576C238.43 576 238.291 576 238.152 576C238.013 576 237.874 576 237.735 576C237.596 576 237.457 576 237.318 576C237.179 576 237.04 576 236.901 576C236.763 576 236.624 576 236.485 576C236.346 576 236.207 576 236.068 576C235.929 576 235.79 576 235.651 576C235.512 576 235.373 576 235.235 576C235.096 576 234.957 576 234.818 576C234.679 576 234.54 576 234.401 576C234.263 576 234.124 576 233.985 576C233.846 576 233.707 576 233.569 576C233.43 576 233.291 576 233.152 576C233.013 576 232.875 576 232.736 576C232.597 576 232.458 576 232.32 576C232.181 576 232.042 576 231.903 576C231.765 576 231.626 576 231.487 576C231.349 576 231.21 576 231.071 576C230.932 576 230.794 576 230.655 576C230.517 576 230.378 576 230.239 576C230.101 576 229.962 576 229.823 576C229.685 576 229.546 576 229.408 576C229.269 576 229.13 576 228.992 576C228.853 576 228.715 576 228.576 576C228.438 576 228.299 576 228.161 576C228.022 576 227.884 576 227.745 576C227.607 576 227.468 576 227.33 576C227.191 576 227.053 576 226.915 576C226.776 576 226.638 576 226.499 576C226.361 576 226.223 576 226.084 576C225.946 576 225.808 576 225.669 576C225.531 576 225.393 576 225.254 576C225.116 576 224.978 576 224.839 576C224.701 576 224.563 576 224.425 576C224.287 576 224.148 576 224.01 576C223.872 576 223.734 576 223.596 576C223.457 576 223.319 576 223.181 576C223.043 576 222.905 576 222.767 576C222.629 576 222.491 576 222.353 576C222.215 576 222.077 576 221.938 576C221.8 576 221.662 576 221.525 576C221.387 576 221.249 576 221.111 576C220.973 576 220.835 576 220.697 576C220.559 576 220.421 576 220.283 576C220.145 576 220.007 576 219.87 576C219.732 576 219.594 576 219.456 576C219.318 576 219.181 576 219.043 576C218.905 576 218.768 576 218.63 576C218.492 576 218.354 576 218.217 576C218.079 576 217.941 576 217.804 576C217.666 576 217.529 576 217.391 576C217.254 576 217.116 576 216.978 576C216.841 576 216.703 576 216.566 576C216.428 576 216.291 576 216.154 576C216.016 576 215.879 576 215.741 576C215.604 576 215.467 576 215.329 576C215.192 576 215.055 576 214.917 576C214.78 576 214.643 576 214.505 576C214.368 576 214.231 576 214.094 576C213.957 576 213.819 576 213.682 576C213.545 576 213.408 576 213.271 576C213.134 576 212.997 576 212.86 576C212.723 576 212.586 576 212.449 576C212.312 576 212.175 576 212.038 576C211.901 576 211.764 576 211.627 576C211.49 576 211.353 576 211.216 576C211.08 576 210.943 576 210.806 576C210.669 576 210.532 576 210.396 576C210.259 576 210.122 576 209.986 576C209.849 576 209.712 576 209.576 576C209.439 576 209.303 576 209.166 576C209.029 576 208.893 576 208.756 576C208.62 576 208.483 576 208.347 576C208.211 576 208.074 576 207.938 576C207.801 576 207.665 576 207.529 576C207.392 576 207.256 576 207.12 576C206.984 576 206.847 576 206.711 576C206.575 576 206.439 576 206.303 576C206.166 576 206.03 576 205.894 576C205.758 576 205.622 576 205.486 576C205.35 576 205.214 576 205.078 576C204.942 576 204.806 576 204.67 576C204.535 576 204.399 576 204.263 576C204.127 576 203.991 576 203.855 576C203.72 576 203.584 576 203.448 576C203.313 576 203.177 576 203.041 576C202.906 576 202.77 576 202.635 576C202.499 576 202.363 576 202.228 576C202.092 576 201.957 576 201.822 576C201.686 576 201.551 576 201.415 576C201.28 576 201.145 576 201.009 576C200.874 576 200.739 576 200.604 576C200.468 576 200.333 576 200.198 576C200.063 576 199.928 576 199.793 576C199.658 576 199.523 576 199.388 576C199.253 576 199.118 576 198.983 576C198.848 576 198.713 576 198.578 576C198.443 576 198.309 576 198.174 576C198.039 576 197.904 576 197.77 576C197.635 576 197.5 576 197.366 576C197.231 576 197.096 576 196.962 576C196.827 576 196.693 576 196.558 576C196.424 576 196.289 576 196.155 576C196.021 576 195.886 576 195.752 576C195.618 576 195.483 576 195.349 576C195.215 576 195.081 576 194.946 576C194.812 576 194.678 576 194.544 576C194.41 576 194.276 576 194.142 576C194.008 576 193.874 576 193.74 576C193.606 576 193.472 576 193.338 576C193.205 576 193.071 576 192.937 576C192.803 576 192.67 576 192.536 576C192.402 576 192.269 576 192.135 576C192.001 576 191.868 576 191.734 576C191.601 576 191.467 576 191.334 576C191.201 576 191.067 576 190.934 576C190.801 576 190.667 576 190.534 576C190.401 576 190.268 576 190.134 576C190.001 576 189.868 576 189.735 576C189.602 576 189.469 576 189.336 576C189.203 576 189.07 576 188.937 576C188.804 576 188.672 576 188.539 576C188.406 576 188.273 576 188.14 576C188.008 576 187.875 576 187.742 576C187.61 576 187.477 576 187.345 576C187.212 576 187.08 576 186.947 576C186.815 576 186.682 576 186.55 576C186.418 576 186.285 576 186.153 576C186.021 576 185.889 576 185.757 576C185.625 576 185.492 576 185.36 576C185.228 576 185.096 576 184.964 576C184.832 576 184.7 576 184.569 576C184.437 576 184.305 576 184.173 576C184.041 576 183.91 576 183.778 576C183.646 576 183.515 576 183.383 576C183.252 576 183.12 576 182.989 576C182.857 576 182.726 576 182.594 576C182.463 576 182.332 576 182.2 576C182.069 576 181.938 576 181.807 576C181.675 576 181.544 576 181.413 576C181.282 576 181.151 576 181.02 576C180.889 576 180.758 576 180.627 576C180.497 576 180.366 576 180.235 576C180.104 576 179.973 576 179.843 576C179.712 576 179.582 576 179.451 576C179.32 576 179.19 576 179.06 576C178.929 576 178.799 576 178.668 576C178.538 576 178.408 576 178.277 576C178.147 576 178.017 576 177.887 576C177.757 576 177.627 576 177.497 576C177.367 576 177.237 576 177.107 576C176.977 576 176.847 576 176.717 576C176.587 576 176.458 576 176.328 576C176.198 576 176.069 576 175.939 576C175.809 576 175.68 576 175.55 576C175.421 576 175.292 576 175.162 576C175.033 576 174.904 576 174.774 576C174.645 576 174.516 576 174.387 576C174.258 576 174.129 576 173.999 576C173.87 576 173.742 576 173.613 576C173.484 576 173.355 576 173.226 576C173.097 576 172.969 576 172.84 576C172.711 576 172.583 576 172.454 576C172.325 576 172.197 576 172.068 576C171.94 576 171.812 576 171.683 576C171.555 576 171.427 576 171.299 576C171.17 576 171.042 576 170.914 576C170.786 576 170.658 576 170.53 576C170.402 576 170.274 576 170.146 576C170.018 576 169.891 576 169.763 576C169.635 576 169.508 576 169.38 576C169.252 576 169.125 576 168.997 576C168.87 576 168.742 576 168.615 576C168.488 576 168.36 576 168.233 576C168.106 576 167.979 576 167.852 576C167.725 576 167.597 576 167.47 576C167.344 576 167.217 576 167.09 576C166.963 576 166.836 576 166.709 576C166.583 576 166.456 576 166.329 576C166.203 576 166.076 576 165.95 576C165.823 576 165.697 576 165.57 576C165.444 576 165.318 576 165.192 576C165.065 576 164.939 576 164.813 576C164.687 576 164.561 576 164.435 576C164.309 576 164.183 576 164.057 576C163.931 576 163.806 576 163.68 576C163.554 576 163.429 576 163.303 576C163.177 576 163.052 576 162.927 576C162.801 576 162.676 576 162.55 576C162.425 576 162.3 576 162.175 576C162.05 576 161.924 576 161.799 576C161.674 576 161.549 576 161.424 576C161.3 576 161.175 576 161.05 576C160.925 576 160.801 576 160.676 576C160.551 576 160.427 576 160.302 576C160.178 576 160.053 576 159.929 576C159.805 576 159.68 576 159.556 576V592C159.68 592 159.805 592 159.929 592C160.053 592 160.178 592 160.302 592C160.427 592 160.551 592 160.676 592C160.801 592 160.925 592 161.05 592C161.175 592 161.3 592 161.424 592C161.549 592 161.674 592 161.799 592C161.924 592 162.05 592 162.175 592C162.3 592 162.425 592 162.55 592C162.676 592 162.801 592 162.927 592C163.052 592 163.177 592 163.303 592C163.429 592 163.554 592 163.68 592C163.806 592 163.931 592 164.057 592C164.183 592 164.309 592 164.435 592C164.561 592 164.687 592 164.813 592C164.939 592 165.065 592 165.192 592C165.318 592 165.444 592 165.57 592C165.697 592 165.823 592 165.95 592C166.076 592 166.203 592 166.329 592C166.456 592 166.583 592 166.709 592C166.836 592 166.963 592 167.09 592C167.217 592 167.344 592 167.47 592C167.597 592 167.725 592 167.852 592C167.979 592 168.106 592 168.233 592C168.36 592 168.488 592 168.615 592C168.742 592 168.87 592 168.997 592C169.125 592 169.252 592 169.38 592C169.508 592 169.635 592 169.763 592C169.891 592 170.018 592 170.146 592C170.274 592 170.402 592 170.53 592C170.658 592 170.786 592 170.914 592C171.042 592 171.17 592 171.299 592C171.427 592 171.555 592 171.683 592C171.812 592 171.94 592 172.068 592C172.197 592 172.325 592 172.454 592C172.583 592 172.711 592 172.84 592C172.969 592 173.097 592 173.226 592C173.355 592 173.484 592 173.613 592C173.742 592 173.87 592 173.999 592C174.129 592 174.258 592 174.387 592C174.516 592 174.645 592 174.774 592C174.904 592 175.033 592 175.162 592C175.292 592 175.421 592 175.55 592C175.68 592 175.809 592 175.939 592C176.069 592 176.198 592 176.328 592C176.458 592 176.587 592 176.717 592C176.847 592 176.977 592 177.107 592C177.237 592 177.367 592 177.497 592C177.627 592 177.757 592 177.887 592C178.017 592 178.147 592 178.277 592C178.408 592 178.538 592 178.668 592C178.799 592 178.929 592 179.06 592C179.19 592 179.32 592 179.451 592C179.582 592 179.712 592 179.843 592C179.973 592 180.104 592 180.235 592C180.366 592 180.497 592 180.627 592C180.758 592 180.889 592 181.02 592C181.151 592 181.282 592 181.413 592C181.544 592 181.675 592 181.807 592C181.938 592 182.069 592 182.2 592C182.332 592 182.463 592 182.594 592C182.726 592 182.857 592 182.989 592C183.12 592 183.252 592 183.383 592C183.515 592 183.646 592 183.778 592C183.91 592 184.041 592 184.173 592C184.305 592 184.437 592 184.569 592C184.7 592 184.832 592 184.964 592C185.096 592 185.228 592 185.36 592C185.492 592 185.625 592 185.757 592C185.889 592 186.021 592 186.153 592C186.285 592 186.418 592 186.55 592C186.682 592 186.815 592 186.947 592C187.08 592 187.212 592 187.345 592C187.477 592 187.61 592 187.742 592C187.875 592 188.008 592 188.14 592C188.273 592 188.406 592 188.539 592C188.672 592 188.804 592 188.937 592C189.07 592 189.203 592 189.336 592C189.469 592 189.602 592 189.735 592C189.868 592 190.001 592 190.134 592C190.268 592 190.401 592 190.534 592C190.667 592 190.801 592 190.934 592C191.067 592 191.201 592 191.334 592C191.467 592 191.601 592 191.734 592C191.868 592 192.001 592 192.135 592C192.848 592 192.224 592 192.937 592C193.071 592 193.205 592 193.338 592C193.472 592 193.606 592 193.74 592C193.874 592 194.008 592 194.142 592C194.276 592 194.41 592 194.544 592C194.678 592 194.812 592 194.946 592C195.081 592 195.215 592 195.349 592C195.483 592 195.618 592 195.752 592C195.886 592 196.021 592 196.155 592C196.289 592 196.424 592 196.558 592C196.693 592 196.827 592 196.962 592C197.096 592 197.231 592 197.366 592C197.5 592 197.635 592 197.77 592C197.904 592 198.039 592 198.174 592C198.309 592 198.443 592 198.578 592C198.713 592 198.848 592 198.983 592C199.118 592 199.253 592 199.388 592C199.523 592 199.658 592 199.793 592C199.928 592 200.063 592 200.198 592C200.333 592 200.468 592 200.604 592C200.739 592 200.874 592 201.009 592C201.145 592 201.28 592 201.415 592C201.551 592 201.686 592 201.822 592C201.957 592 202.092 592 202.228 592C202.363 592 202.499 592 202.635 592C202.77 592 202.906 592 203.041 592C203.177 592 203.313 592 203.448 592C203.584 592 203.72 592 203.855 592C203.991 592 204.127 592 204.263 592C204.399 592 204.535 592 204.67 592C204.806 592 204.942 592 205.078 592C205.214 592 205.35 592 205.486 592C205.622 592 205.758 592 205.894 592C206.03 592 206.166 592 206.303 592C206.439 592 206.575 592 206.711 592C206.847 592 206.984 592 207.12 592C207.256 592 207.392 592 207.529 592C207.665 592 207.801 592 207.938 592C208.074 592 208.211 592 208.347 592C208.483 592 208.62 592 208.756 592C208.893 592 209.029 592 209.166 592C209.303 592 209.439 592 209.576 592C209.712 592 209.849 592 209.986 592C210.122 592 210.259 592 210.396 592C210.532 592 210.669 592 210.806 592C210.943 592 211.08 592 211.216 592C211.353 592 211.49 592 211.627 592C211.764 592 211.901 592 212.038 592C212.175 592 212.312 592 212.449 592C212.586 592 212.723 592 212.86 592C212.997 592 213.134 592 213.271 592C213.408 592 213.545 592 213.682 592C213.819 592 213.957 592 214.094 592C214.231 592 214.368 592 214.505 592C214.643 592 214.78 592 214.917 592C215.055 592 215.192 592 215.329 592C215.467 592 215.604 592 215.741 592C215.879 592 216.016 592 216.154 592C216.291 592 216.428 592 216.566 592C216.703 592 216.841 592 216.978 592C217.116 592 217.254 592 217.391 592C217.529 592 217.666 592 217.804 592C217.941 592 218.079 592 218.217 592C218.354 592 218.492 592 218.63 592C218.768 592 218.905 592 219.043 592C219.181 592 219.318 592 219.456 592C219.594 592 219.732 592 219.87 592C220.007 592 220.145 592 220.283 592C220.421 592 220.559 592 220.697 592C220.835 592 220.973 592 221.111 592C221.249 592 221.387 592 221.525 592C221.662 592 221.8 592 221.938 592C222.077 592 222.215 592 222.353 592C222.491 592 222.629 592 222.767 592C222.905 592 223.043 592 223.181 592C223.319 592 223.457 592 223.596 592C223.734 592 223.872 592 224.01 592C224.148 592 224.287 592 224.425 592C224.563 592 224.701 592 224.839 592C224.978 592 225.116 592 225.254 592C225.393 592 225.531 592 225.669 592C225.808 592 225.946 592 226.084 592C226.223 592 226.361 592 226.499 592C226.638 592 226.776 592 226.915 592C227.053 592 227.191 592 227.33 592C227.468 592 227.607 592 227.745 592C227.884 592 228.022 592 228.161 592C228.299 592 228.438 592 228.576 592C228.715 592 228.853 592 228.992 592C229.13 592 229.269 592 229.408 592C229.546 592 229.685 592 229.823 592C229.962 592 230.101 592 230.239 592C230.378 592 230.517 592 230.655 592C230.794 592 230.932 592 231.071 592C231.21 592 231.349 592 231.487 592C231.626 592 231.765 592 231.903 592C232.042 592 232.181 592 232.32 592C232.458 592 232.597 592 232.736 592C232.875 592 233.013 592 233.152 592C233.291 592 233.43 592 233.569 592C233.707 592 233.846 592 233.985 592C234.124 592 234.263 592 234.401 592C234.54 592 234.679 592 234.818 592C234.957 592 235.096 592 235.235 592C235.373 592 235.512 592 235.651 592C235.79 592 235.929 592 236.068 592C236.207 592 236.346 592 236.485 592C236.624 592 236.763 592 236.901 592C237.04 592 237.179 592 237.318 592C237.457 592 237.596 592 237.735 592C237.874 592 238.013 592 238.152 592C238.291 592 238.43 592 238.569 592C238.708 592 238.847 592 238.986 592C239.125 592 239.264 592 239.403 592C239.542 592 239.681 592 239.82 592C239.959 592 240.098 592 240.237 592C240.376 592 240.515 592 240.654 592C240.793 592 240.932 592 241.071 592C241.21 592 241.349 592 241.488 592C241.627 592 241.766 592 241.905 592C242.045 592 242.184 592 242.323 592C242.462 592 242.601 592 242.74 592C242.879 592 243.018 592 243.157 592C243.296 592 243.435 592 243.574 592C243.713 592 243.852 592 243.991 592C244.131 592 244.27 592 244.409 592C244.548 592 244.687 592 244.826 592C244.965 592 245.104 592 245.243 592C245.382 592 245.521 592 245.66 592C245.799 592 245.939 592 246.078 592C246.217 592 246.356 592 246.495 592C246.634 592 246.773 592 246.912 592C247.051 592 247.19 592 247.329 592C247.468 592 247.608 592 247.747 592C247.886 592 248.025 592 248.164 592C248.303 592 248.442 592 248.581 592C248.72 592 248.859 592 248.998 592C249.137 592 249.276 592 249.415 592C249.554 592 249.693 592 249.833 592C249.972 592 250.111 592 250.25 592C250.389 592 250.528 592 250.667 592C250.806 592 250.945 592 251.084 592C251.223 592 251.362 592 251.501 592C251.64 592 251.779 592 251.918 592C252.057 592 252.196 592 252.335 592C252.474 592 252.613 592 252.752 592C252.891 592 253.03 592 253.169 592C253.308 592 253.447 592 253.586 592C253.725 592 253.864 592 254.003 592C254.142 592 254.281 592 254.42 592C254.559 592 254.698 592 254.836 592C254.975 592 255.114 592 255.253 592C255.392 592 255.531 592 255.67 592C255.809 592 255.948 592 256.087 592C256.225 592 256.364 592 256.503 592C256.642 592 256.781 592 256.92 592C257.059 592 257.198 592 257.336 592C257.475 592 257.614 592 257.753 592C257.892 592 258.03 592 258.169 592C258.308 592 258.447 592 258.586 592C258.724 592 258.863 592 259.002 592C259.141 592 259.279 592 259.418 592C259.557 592 259.696 592 259.834 592C259.973 592 260.112 592 260.25 592C260.389 592 260.528 592 260.666 592C260.805 592 260.944 592 261.082 592C261.221 592 261.36 592 261.498 592C261.637 592 261.776 592 261.914 592C262.053 592 262.191 592 262.33 592C262.468 592 262.607 592 262.746 592C262.884 592 263.023 592 263.161 592C263.3 592 263.438 592 263.577 592C263.715 592 263.854 592 263.992 592C264.131 592 264.269 592 264.407 592C264.546 592 264.684 592 264.823 592C264.961 592 265.1 592 265.238 592C265.376 592 265.515 592 265.653 592C265.791 592 265.93 592 266.068 592C266.206 592 266.345 592 266.483 592C266.621 592 266.759 592 266.898 592C267.036 592 267.174 592 267.312 592C267.451 592 267.589 592 267.727 592C267.865 592 268.003 592 268.141 592C268.28 592 268.418 592 268.556 592C268.694 592 268.832 592 268.97 592C269.108 592 269.246 592 269.384 592C269.522 592 269.66 592 269.798 592C269.936 592 270.074 592 270.212 592C270.35 592 270.488 592 270.626 592C270.764 592 270.902 592 271.04 592C271.178 592 271.316 592 271.454 592C271.591 592 271.729 592 271.867 592C272.005 592 272.143 592 272.28 592C272.418 592 272.556 592 272.694 592C272.831 592 272.969 592 273.107 592C273.244 592 273.382 592 273.52 592C273.657 592 273.795 592 273.933 592C274.07 592 274.208 592 274.345 592C274.483 592 274.62 592 274.758 592C274.895 592 275.033 592 275.17 592C275.308 592 275.445 592 275.583 592C275.72 592 275.858 592 275.995 592C276.132 592 276.27 592 276.407 592C276.544 592 276.682 592 276.819 592C276.956 592 277.093 592 277.231 592C277.368 592 277.505 592 277.642 592C277.779 592 277.917 592 278.054 592C278.191 592 278.328 592 278.465 592C278.602 592 278.739 592 278.876 592C279.013 592 279.15 592 279.287 592C279.424 592 279.561 592 279.698 592C279.835 592 279.972 592 280.109 592C280.246 592 280.382 592 280.519 592C280.656 592 280.793 592 280.93 592C281.066 592 281.203 592 281.34 592C281.476 592 281.613 592 281.75 592C281.886 592 282.023 592 282.16 592C282.296 592 282.433 592 282.569 592C282.706 592 282.842 592 282.979 592C283.115 592 283.252 592 283.388 592C283.525 592 283.661 592 283.797 592C283.934 592 284.07 592 284.206 592C284.343 592 284.479 592 284.615 592C284.751 592 284.888 592 285.024 592C285.16 592 285.296 592 285.432 592C285.568 592 285.704 592 285.841 592C285.977 592 286.113 592 286.249 592C286.385 592 286.521 592 286.656 592C286.792 592 286.928 592 287.064 592C287.2 592 287.336 592 287.472 592C287.607 592 287.743 592 287.879 592C288.015 592 288.15 592 288.286 592C288.422 592 288.557 592 288.693 592C288.829 592 288.964 592 289.1 592C289.235 592 289.371 592 289.506 592C289.642 592 289.777 592 289.912 592C290.048 592 290.183 592 290.319 592C290.454 592 290.589 592 290.724 592C290.86 592 290.995 592 291.13 592C291.265 592 291.4 592 291.536 592C291.671 592 291.806 592 291.941 592C292.076 592 292.211 592 292.346 592C292.481 592 292.616 592 292.751 592C292.886 592 293.02 592 293.155 592C293.29 592 293.425 592 293.56 592C293.694 592 293.829 592 293.964 592C294.098 592 294.233 592 294.368 592C294.502 592 294.637 592 294.771 592C294.906 592 295.04 592 295.175 592C295.309 592 295.444 592 295.578 592C295.712 592 295.847 592 295.981 592C296.115 592 296.25 592 296.384 592C296.518 592 296.652 592 296.786 592C296.92 592 297.054 592 297.189 592C297.323 592 297.457 592 297.591 592C297.725 592 297.858 592 297.992 592C298.126 592 298.26 592 298.394 592C298.528 592 298.661 592 298.795 592C298.929 592 299.063 592 299.196 592C299.33 592 299.463 592 299.597 592C299.731 592 299.864 592 299.998 592C300.131 592 300.264 592 300.398 592C300.531 592 300.665 592 300.798 592C300.931 592 301.064 592 301.198 592C301.331 592 301.464 592 301.597 592C301.73 592 301.863 592 301.996 592C302.129 592 302.262 592 302.395 592C302.528 592 302.661 592 302.794 592C302.927 592 303.06 592 303.192 592C303.325 592 303.458 592 303.591 592C303.723 592 303.856 592 303.989 592C304.121 592 304.254 592 304.386 592C304.519 592 304.651 592 304.783 592C304.916 592 305.048 592 305.181 592C305.313 592 305.445 592 305.577 592C305.71 592 305.842 592 305.974 592C306.106 592 306.238 592 306.37 592C306.502 592 306.634 592 306.766 592C306.898 592 307.03 592 307.162 592C307.293 592 307.425 592 307.557 592C307.689 592 307.82 592 307.952 592C308.084 592 308.215 592 308.347 592C308.478 592 308.61 592 308.741 592C308.873 592 309.004 592 309.135 592C309.267 592 309.398 592 309.529 592C309.66 592 309.792 592 309.923 592C310.054 592 310.185 592 310.316 592C310.447 592 310.578 592 310.709 592C310.84 592 310.971 592 311.102 592C311.232 592 311.363 592 311.494 592C311.625 592 311.755 592 311.886 592C312.017 592 312.147 592 312.278 592C312.408 592 312.539 592 312.669 592C312.799 592 312.93 592 313.06 592C313.19 592 313.321 592 313.451 592C313.581 592 313.711 592 313.841 592C313.971 592 314.101 592 314.231 592C314.361 592 314.491 592 314.621 592C314.751 592 314.881 592 315.011 592C315.14 592 315.27 592 315.4 592C315.529 592 315.659 592 315.789 592C315.918 592 316.048 592 316.177 592C316.307 592 316.436 592 316.565 592C316.695 592 316.824 592 316.953 592C317.082 592 317.211 592 317.34 592C317.47 592 317.599 592 317.728 592C317.857 592 317.985 592 318.114 592C318.243 592 318.372 592 318.501 592C318.629 592 318.758 592 318.887 592C319.015 592 319.144 592 319.273 592C319.401 592 319.529 592 319.658 592C319.786 592 319.915 592 320.043 592C320.171 592 320.299 592 320.428 592C320.556 592 320.684 592 320.812 592C320.94 592 321.068 592 321.196 592C321.324 592 321.452 592 321.579 592C321.707 592 321.835 592 321.963 592C322.09 592 322.218 592 322.346 592C322.473 592 322.601 592 322.728 592C322.855 592 322.983 592 323.11 592C323.237 592 323.365 592 323.492 592C323.619 592 323.746 592 323.873 592C324 592 324.127 592 324.254 592C324.381 592 324.508 592 324.635 592C324.762 592 324.889 592 325.015 592C325.142 592 325.269 592 325.395 592C325.522 592 325.648 592 325.775 592C325.901 592 326.027 592 326.154 592C326.28 592 326.406 592 326.532 592C326.659 592 326.785 592 326.911 592C327.037 592 327.163 592 327.289 592C327.415 592 327.54 592 327.666 592C327.792 592 327.918 592 328.043 592C328.169 592 328.295 592 328.42 592C328.546 592 328.671 592 328.797 592C328.922 592 329.047 592 329.173 592C329.298 592 329.423 592 329.548 592C329.673 592 329.798 592 329.923 592C330.048 592 330.173 592 330.298 592C330.423 592 330.548 592 330.672 592C330.797 592 330.922 592 331.046 592C331.171 592 331.295 592 331.42 592C331.544 592 331.669 592 331.793 592C331.917 592 332.042 592 332.166 592C332.29 592 332.414 592 332.538 592C332.662 592 332.786 592 332.91 592C333.034 592 333.158 592 333.281 592C333.405 592 333.529 592 333.652 592C333.776 592 333.899 592 334.023 592C334.146 592 334.27 592 334.393 592C334.516 592 334.64 592 334.763 592C334.886 592 335.009 592 335.132 592C335.255 592 335.378 592 335.501 592C335.624 592 335.747 592 335.87 592C335.992 592 336.115 592 336.238 592C336.36 592 336.483 592 336.605 592C336.728 592 336.85 592 336.972 592C337.095 592 337.217 592 337.339 592C337.461 592 337.583 592 337.705 592C337.827 592 337.949 592 338.071 592C338.193 592 338.315 592 338.436 592C338.558 592 338.68 592 338.801 592C338.923 592 339.044 592 339.166 592C339.287 592 339.408 592 339.53 592C339.651 592 339.772 592 339.893 592C340.014 592 340.135 592 340.256 592C340.377 592 340.498 592 340.619 592C340.74 592 340.86 592 340.981 592C341.102 592 341.222 592 341.343 592C341.463 592 341.584 592 341.704 592C341.824 592 341.945 592 342.065 592C342.185 592 342.305 592 342.425 592C342.545 592 342.665 592 342.785 592C342.905 592 343.025 592 343.144 592C343.264 592 343.384 592 343.503 592C343.623 592 343.742 592 343.862 592C343.981 592 344.1 592 344.22 592C344.339 592 344.458 592 344.577 592C344.696 592 344.815 592 344.934 592C345.053 592 345.172 592 345.29 592C345.409 592 345.528 592 345.646 592C345.765 592 345.884 592 346.002 592C346.12 592 346.239 592 346.357 592C346.987 592 346.437 592 347.065 592C347.183 592 347.301 592 347.419 592C347.537 592 347.654 592 347.772 592C347.89 592 348.007 592 348.125 592C348.242 592 348.359 592 348.477 592C348.594 592 348.711 592 348.828 592C348.945 592 349.062 592 349.179 592C349.296 592 349.413 592 349.53 592C349.646 592 349.763 592 349.88 592C349.996 592 350.113 592 350.229 592C350.346 592 350.462 592 350.578 592C350.694 592 350.81 592 350.927 592C351.043 592 351.159 592 351.274 592C351.39 592 351.506 592 351.622 592C351.738 592 351.853 592 351.969 592C352.084 592 352.2 592 352.315 592C352.431 592 352.546 592 352.661 592C352.776 592 352.891 592 353.006 592C353.121 592 353.236 592 353.351 592C353.466 592 353.581 592 353.695 592C353.81 592 353.925 592 354.039 592C354.154 592 354.268 592 354.382 592C354.497 592 354.611 592 354.725 592C354.839 592 354.953 592 355.067 592C355.181 592 355.295 592 355.409 592C355.522 592 355.636 592 355.75 592C355.863 592 355.977 592 356.09 592C356.204 592 356.317 592 356.43 592C356.543 592 356.656 592 356.77 592C356.883 592 356.995 592 357.108 592C357.221 592 357.334 592 357.447 592C357.559 592 357.672 592 357.784 592C357.897 592 358.009 592 358.122 592C358.234 592 358.346 592 358.458 592C358.57 592 358.682 592 358.794 592C358.906 592 359.018 592 359.13 592C359.241 592 359.353 592 359.465 592C359.576 592 359.688 592 359.799 592C359.91 592 360.022 592 360.133 592C360.244 592 360.355 592 360.466 592C360.577 592 360.688 592 360.799 592C360.909 592 361.02 592 361.131 592C361.241 592 361.352 592 361.462 592V576ZM115.236 553.451C100.836 524.063 96.4471 485.666 96.0329 452.603L80.0342 452.803C80.4573 486.581 84.8813 527.865 100.868 560.491L115.236 553.451ZM158.994 394H358.334V378H158.994V394ZM159.556 576C140.089 576 122.618 568.517 115.236 553.451L100.868 560.491C112.018 583.248 136.904 592 159.556 592V576ZM404.775 553.236C398.137 568.384 380.951 576 361.462 576V592C384.092 592 409.164 583.087 419.43 559.657L404.775 553.236ZM438.586 456.844C440.334 411.604 402.278 378 358.334 378V394C394.558 394 423.945 421.36 422.598 456.227L438.586 456.844ZM96.0329 452.603C95.6161 419.328 124.154 394 158.994 394V378C116.841 378 79.4866 409.092 80.0342 452.803L96.0329 452.603Z" fill="#211A1A" mask="url(#path-2-inside-1_26:1421)"/>
<mask id="path-4-inside-2_26:1421" fill="white">
<path fill-rule="evenodd" clip-rule="evenodd" d="M213.374 386H217.26C222.857 355.684 222.857 317 222.857 317H299.142C299.142 317 299.142 355.684 304.739 386H328.625C312.781 398.524 292.764 406 271 406C249.236 406 229.218 398.524 213.374 386Z"/>
</mask>
<path fill-rule="evenodd" clip-rule="evenodd" d="M213.374 386H217.26C222.857 355.684 222.857 317 222.857 317H299.142C299.142 317 299.142 355.684 304.739 386H328.625C312.781 398.524 292.764 406 271 406C249.236 406 229.218 398.524 213.374 386Z" fill="#C89583"/>
<path d="M213.374 386V378H190.353L208.413 392.276L213.374 386ZM217.26 386V394H223.918L225.127 387.452L217.26 386ZM222.857 317V309H214.857L214.857 317L222.857 317ZM299.142 317L307.142 317V309H299.142V317ZM304.739 386L296.872 387.452L298.081 394H304.739V386ZM328.625 386L333.586 392.276L351.646 378H328.625V386ZM213.374 394H217.26V378H213.374V394ZM225.127 387.452C228.018 371.79 229.44 354.139 230.146 340.547C230.501 333.72 230.679 327.854 230.767 323.689C230.812 321.605 230.834 319.945 230.845 318.8C230.851 318.227 230.854 317.783 230.855 317.479C230.856 317.328 230.856 317.211 230.857 317.13C230.857 317.09 230.857 317.059 230.857 317.037C230.857 317.026 230.857 317.018 230.857 317.012C230.857 317.008 230.857 317.006 230.857 317.004C230.857 317.003 230.857 317.002 230.857 317.002C230.857 317.001 230.857 317 222.857 317C214.857 317 214.857 317 214.857 316.999C214.857 316.999 214.857 316.999 214.857 316.999C214.857 317 214.857 317.001 214.857 317.003C214.857 317.006 214.857 317.011 214.857 317.019C214.857 317.035 214.857 317.06 214.857 317.093C214.856 317.161 214.856 317.265 214.855 317.404C214.854 317.682 214.851 318.099 214.846 318.643C214.836 319.732 214.814 321.331 214.771 323.348C214.685 327.383 214.513 333.083 214.168 339.716C213.475 353.045 212.098 369.894 209.393 384.548L225.127 387.452ZM222.857 325H299.142V309H222.857V325ZM299.142 317C291.142 317 291.142 317.001 291.142 317.002C291.142 317.002 291.142 317.003 291.142 317.004C291.142 317.006 291.142 317.008 291.142 317.012C291.143 317.018 291.143 317.026 291.143 317.037C291.143 317.059 291.143 317.09 291.143 317.13C291.143 317.211 291.143 317.328 291.144 317.479C291.145 317.783 291.148 318.227 291.154 318.8C291.165 319.945 291.187 321.605 291.232 323.689C291.321 327.854 291.498 333.72 291.853 340.547C292.559 354.139 293.981 371.79 296.872 387.452L312.606 384.548C309.901 369.894 308.524 353.045 307.831 339.716C307.487 333.083 307.314 327.383 307.228 323.348C307.185 321.331 307.164 319.732 307.153 318.643C307.148 318.099 307.145 317.682 307.144 317.404C307.143 317.265 307.143 317.161 307.143 317.093C307.143 317.06 307.143 317.035 307.143 317.019C307.143 317.011 307.142 317.006 307.142 317.003C307.142 317.001 307.142 317 307.142 317C307.142 316.999 307.142 316.999 307.142 316.999C307.142 317 307.142 317 299.142 317ZM304.739 394H328.625V378H304.739V394ZM323.664 379.724C309.182 391.171 290.899 398 271 398V414C294.628 414 316.38 405.877 333.586 392.276L323.664 379.724ZM271 398C251.1 398 232.817 391.171 218.335 379.724L208.413 392.276C225.619 405.877 247.372 414 271 414V398Z" fill="#211A1A" mask="url(#path-4-inside-2_26:1421)"/>
<path d="M297.372 360.119C297.591 362.26 297.879 364.999 298.224 368.068C299.039 375.318 300.175 384.48 301.447 391.958C301.994 395.172 300.85 398.068 298.655 399.554C290.724 404.924 276.233 413 261.403 413C246.573 413 232.083 404.924 224.151 399.554C221.957 398.068 220.812 395.172 221.359 391.958C222.632 384.48 223.767 375.318 224.582 368.068C224.927 364.999 225.216 362.26 225.434 360.119C227.696 360.707 230.665 361.435 234.077 362.162C241.804 363.81 251.992 365.5 261.403 365.5C270.815 365.5 281.002 363.81 288.729 362.162C292.141 361.435 295.111 360.707 297.372 360.119Z" fill="#71102D" stroke="#211A1A" stroke-width="8"/>
<path d="M406 219C406 224.846 404.218 229.984 401.528 233.571C398.839 237.156 395.429 239 392 239C388.571 239 385.161 237.156 382.472 233.571C379.782 229.984 378 224.846 378 219C378 213.154 379.782 208.016 382.472 204.429C385.161 200.844 388.571 199 392 199C395.429 199 398.839 200.844 401.528 204.429C404.218 208.016 406 213.154 406 219Z" fill="#F8D9CE" stroke="#150C0C" stroke-width="8"/>
<path d="M141 219C141 224.846 139.218 229.984 136.528 233.571C133.839 237.156 130.429 239 127 239C123.571 239 120.161 237.156 117.472 233.571C114.782 229.984 113 224.846 113 219C113 213.154 114.782 208.016 117.472 204.429C120.161 200.844 123.571 199 127 199C130.429 199 133.839 200.844 136.528 204.429C139.218 208.016 141 213.154 141 219Z" fill="#F8D9CE" stroke="#150C0C" stroke-width="8"/>
<path d="M260.004 61.0001L259.996 61.0001C259.953 61 259.94 61.0001 259.924 61.0002L260.004 61.0001ZM260.004 61.0001L260.172 61C329.949 61.1427 385.527 103.798 385.527 157.495C385.527 170.008 386.301 179.692 387.195 190.89C387.389 193.321 387.589 195.823 387.787 198.441C388.903 213.136 390 227.603 390 242.137C390 272.713 371.228 299.809 345.176 319.493C319.13 339.172 286.524 350.865 260.278 350.999L260.25 350.999M260.004 61.0001L260.25 350.999M260.25 350.999L260.221 351M260.25 350.999L260.221 351M260.221 351C260.204 351 260.189 351 260.175 351L260.008 351H260M260.221 351L260 351M260 351H259.992M260 351H259.992M259.992 351L259.825 351C259.811 351 259.796 351 259.779 351L259.75 350.999M259.992 351L259.75 350.999M259.75 350.999L259.722 350.999M259.75 350.999L259.722 350.999M259.722 350.999C233.476 350.865 200.87 339.172 174.824 319.493M259.722 350.999L174.824 319.493M174.824 319.493C148.772 299.809 130 272.713 130 242.137M174.824 319.493L130 242.137M130 242.137C130 227.603 131.097 213.136 132.213 198.441M130 242.137L132.213 198.441M132.213 198.441C132.411 195.823 132.611 193.321 132.805 190.89M132.213 198.441L132.805 190.89M132.805 190.89C133.699 179.692 134.473 170.008 134.473 157.495M132.805 190.89L134.473 157.495M134.473 157.495C134.473 103.798 190.052 61.1427 259.829 61.0004L134.473 157.495Z" fill="#F8D9CE" stroke="#150C0C" stroke-width="8"/>
<circle cx="194" cy="206" r="14" fill="#150C0C"/>
<circle cx="197" cy="203" r="3" fill="white" fill-opacity="0.9"/>
<circle cx="336" cy="206" r="14" fill="#150C0C"/>
<circle cx="340" cy="203" r="3" fill="white" fill-opacity="0.9"/>
<path d="M312.859 174.275C311.631 174.905 311.145 176.412 311.775 177.641C312.405 178.869 313.912 179.355 315.141 178.725L312.859 174.275ZM364.475 183.481C365.57 184.323 367.139 184.119 367.981 183.025C368.823 181.93 368.619 180.361 367.525 179.519L364.475 183.481ZM315.141 178.725C328.047 172.108 340.332 173.269 349.494 176.136C354.079 177.571 357.853 179.427 360.477 180.922C361.787 181.668 362.804 182.322 363.486 182.782C363.827 183.013 364.083 183.194 364.25 183.315C364.333 183.375 364.394 183.421 364.432 183.449C364.451 183.463 364.464 183.473 364.471 183.478C364.475 183.481 364.477 183.483 364.478 183.483C364.478 183.483 364.478 183.483 364.478 183.483C364.478 183.483 364.477 183.482 364.477 183.482C364.476 183.482 364.475 183.481 366 181.5C367.525 179.519 367.524 179.518 367.523 179.517C367.522 179.517 367.521 179.516 367.52 179.515C367.518 179.514 367.516 179.512 367.513 179.51C367.508 179.506 367.501 179.501 367.493 179.494C367.476 179.482 367.453 179.464 367.424 179.443C367.367 179.4 367.286 179.34 367.182 179.265C366.974 179.114 366.673 178.901 366.285 178.639C365.51 178.116 364.385 177.394 362.953 176.578C360.093 174.948 355.988 172.929 350.987 171.364C340.975 168.231 327.26 166.892 312.859 174.275L315.141 178.725Z" fill="black"/>
<path d="M217.141 174.275C218.369 174.905 218.855 176.412 218.225 177.641C217.595 178.869 216.088 179.355 214.859 178.725L217.141 174.275ZM165.525 183.481C164.43 184.323 162.861 184.119 162.019 183.025C161.177 181.93 161.381 180.361 162.475 179.519L165.525 183.481ZM214.859 178.725C201.953 172.108 189.668 173.269 180.506 176.136C175.921 177.571 172.147 179.427 169.523 180.922C168.213 181.668 167.196 182.322 166.514 182.782C166.173 183.013 165.917 183.194 165.75 183.315C165.667 183.375 165.606 183.421 165.568 183.449C165.549 183.463 165.536 183.473 165.529 183.478C165.525 183.481 165.523 183.483 165.522 183.483C165.522 183.483 165.522 183.483 165.522 183.483C165.522 183.483 165.523 183.482 165.523 183.482C165.524 183.482 165.525 183.481 164 181.5C162.475 179.519 162.476 179.518 162.477 179.517C162.478 179.517 162.479 179.516 162.48 179.515C162.482 179.514 162.484 179.512 162.487 179.51C162.492 179.506 162.499 179.501 162.507 179.494C162.524 179.482 162.547 179.464 162.576 179.443C162.633 179.4 162.714 179.34 162.818 179.265C163.026 179.114 163.327 178.901 163.715 178.639C164.49 178.116 165.615 177.394 167.047 176.578C169.907 174.948 174.012 172.929 179.013 171.364C189.025 168.231 202.74 166.892 217.141 174.275L214.859 178.725Z" fill="black"/>
<circle r="3.5" transform="matrix(1 0 0 -1 183.5 270.5)" fill="#9C6458" fill-opacity="0.5" style="mix-blend-mode:multiply"/>
<circle r="3.5" transform="matrix(1 0 0 -1 190.5 259.5)" fill="#9C6458" fill-opacity="0.5" style="mix-blend-mode:multiply"/>
<circle r="3.5" transform="matrix(1 0 0 -1 202.5 270.5)" fill="#9C6458" fill-opacity="0.5" style="mix-blend-mode:multiply"/>
<circle cx="336.5" cy="270.5" r="3.5" transform="rotate(-180 336.5 270.5)" fill="#9C6458" fill-opacity="0.5" style="mix-blend-mode:multiply"/>
<circle cx="329.5" cy="259.5" r="3.5" transform="rotate(-180 329.5 259.5)" fill="#9C6458" fill-opacity="0.5" style="mix-blend-mode:multiply"/>
<circle cx="317.5" cy="270.5" r="3.5" transform="rotate(-180 317.5 270.5)" fill="#9C6458" fill-opacity="0.5" style="mix-blend-mode:multiply"/>
<path d="M279.523 208.015C279.025 185.321 295.999 165.178 318.43 161.585C329.216 159.857 340.048 160.127 351.58 162.873C369.204 167.07 382.948 181.784 384.266 199.714C384.994 209.615 384.022 219.6 381.404 228.879C377.135 244.006 363.224 254.341 347.436 256.526C337.458 257.908 327.02 257.908 316.085 255.953C298.048 252.729 283.497 238.496 280.635 220.46C279.986 216.373 279.616 212.232 279.523 208.015Z" stroke="#423636" stroke-width="3"/>
<path d="M246.477 208.015C246.975 185.321 230.001 165.178 207.57 161.585C196.784 159.857 185.952 160.127 174.42 162.873C156.796 167.07 143.052 181.784 141.734 199.714C141.006 209.615 141.978 219.6 144.596 228.879C148.865 244.006 162.776 254.341 178.564 256.526C188.542 257.908 198.98 257.908 209.915 255.953C227.952 252.729 242.503 238.496 245.365 220.46C246.014 216.373 246.384 212.232 246.477 208.015Z" stroke="#423636" stroke-width="3"/>
<path d="M235 176.51C235 176.51 248.723 170.33 262.917 170.33C277.11 170.33 290 178.57 290 178.57" stroke="#423636" stroke-width="3"/>
<path d="M227.018 273.47C227.017 273.47 227.024 273.464 227.04 273.452C227.027 273.464 227.019 273.47 227.018 273.47ZM227.953 273.024C228.116 272.964 228.303 272.9 228.517 272.832C230.19 272.306 232.741 271.825 236.003 271.426C242.477 270.634 251.198 270.23 259.98 270.23C268.762 270.23 277.482 270.634 283.957 271.426C287.219 271.825 289.77 272.306 291.443 272.832C291.68 272.907 291.886 272.978 292.062 273.045C292.012 273.141 291.954 273.246 291.888 273.358C291.46 274.084 290.775 274.955 289.812 275.932C287.888 277.885 285.098 280.014 281.808 281.993C275.149 285.999 267.101 289 260.985 289C254.838 289 246.267 285.977 239.078 281.947C235.526 279.956 232.481 277.812 230.371 275.844C229.314 274.858 228.563 273.982 228.095 273.256C228.043 273.175 227.996 273.098 227.953 273.024ZM292.942 273.47C292.941 273.47 292.933 273.464 292.92 273.452C292.936 273.464 292.942 273.47 292.942 273.47Z" fill="#F9ECEC" stroke="#150C0C" stroke-width="6"/>
<path d="M305.498 278.976C305.498 278.976 298.7 276.948 294.677 272.266C290.654 267.583 290.877 260 290.877 260" stroke="#150C0C" stroke-width="2"/>
<path d="M213.969 278.976C213.969 278.976 220.767 276.948 224.79 272.266C228.813 267.583 228.59 260 228.59 260" stroke="#150C0C" stroke-width="2"/>
<mask id="path-28-outside-3_26:1421" maskUnits="userSpaceOnUse" x="133" y="34" width="285" height="394" fill="black">
<rect fill="white" x="133" y="34" width="285" height="394"/>
<path fill-rule="evenodd" clip-rule="evenodd" d="M409 207.26C409.334 201.919 409.5 196.494 409.5 191C409.5 108.71 353 42 290 42C261.372 42 234.629 50.0739 211.925 64.0689C226.771 59.5257 242.943 57.0344 259.825 57.0004L259.905 57.0002L260 57.0001L260.175 57C331.101 57.1431 389.527 100.664 389.527 157.495C389.527 169.836 390.286 179.344 391.179 190.528L391.179 190.529L391.179 190.529L391.18 190.537C391.323 192.34 391.471 194.187 391.619 196.096C400.802 197.187 408 207.473 408 220C408 231.427 402.011 240.988 393.99 243.408C393.2 292.404 346.921 331.668 300.969 347.473C301.706 360.555 303.101 376.708 305.74 391H359.335C378.351 391 395.934 397.86 409 409.348V207.26ZM222.956 348.766C191.479 338.851 159.232 317.716 141 289.791V393.353C147.08 391.813 153.457 391 159.994 391H218.26C220.813 377.175 222.201 361.61 222.956 348.766Z"/>
</mask>
<path fill-rule="evenodd" clip-rule="evenodd" d="M409 207.26C409.334 201.919 409.5 196.494 409.5 191C409.5 108.71 353 42 290 42C261.372 42 234.629 50.0739 211.925 64.0689C226.771 59.5257 242.943 57.0344 259.825 57.0004L259.905 57.0002L260 57.0001L260.175 57C331.101 57.1431 389.527 100.664 389.527 157.495C389.527 169.836 390.286 179.344 391.179 190.528L391.179 190.529L391.179 190.529L391.18 190.537C391.323 192.34 391.471 194.187 391.619 196.096C400.802 197.187 408 207.473 408 220C408 231.427 402.011 240.988 393.99 243.408C393.2 292.404 346.921 331.668 300.969 347.473C301.706 360.555 303.101 376.708 305.74 391H359.335C378.351 391 395.934 397.86 409 409.348V207.26ZM222.956 348.766C191.479 338.851 159.232 317.716 141 289.791V393.353C147.08 391.813 153.457 391 159.994 391H218.26C220.813 377.175 222.201 361.61 222.956 348.766Z" fill="#150C0C"/>
<path d="M409 207.26L401.016 206.76L401 207.01V207.26H409ZM211.925 64.0689L207.727 57.2588L214.266 71.7187L211.925 64.0689ZM259.825 57.0004L259.811 49.0004L259.808 49.0004L259.825 57.0004ZM259.905 57.0002L259.894 49.0002L259.891 49.0002L259.905 57.0002ZM260 57.0001L259.996 49.0001L259.989 49.0001L260 57.0001ZM260.175 57L260.192 49L260.181 49L260.171 49L260.175 57ZM391.179 190.528L383.204 191.165L383.205 191.179L383.206 191.193L391.179 190.528ZM391.179 190.529L399.167 190.085L399.16 189.975L399.151 189.864L391.179 190.529ZM391.179 190.529L383.191 190.973L383.196 191.06L383.203 191.146L391.179 190.529ZM391.18 190.537L383.203 191.154L383.204 191.164L383.205 191.173L391.18 190.537ZM391.619 196.096L383.643 196.715L384.152 203.264L390.675 204.04L391.619 196.096ZM393.99 243.408L391.679 235.749L386.085 237.437L385.991 243.28L393.99 243.408ZM300.969 347.473L298.367 339.908L292.641 341.877L292.982 347.923L300.969 347.473ZM305.74 391L297.873 392.452L299.081 399H305.74V391ZM409 409.348L403.718 415.356L417 427.034V409.348H409ZM141 289.791L147.699 285.418L133 262.905V289.791H141ZM222.956 348.766L230.942 349.236L231.309 343.01L225.36 341.136L222.956 348.766ZM141 393.353H133V403.63L142.963 401.108L141 393.353ZM218.26 391V399H224.919L226.127 392.452L218.26 391ZM401.5 191C401.5 196.334 401.339 201.592 401.016 206.76L416.984 207.759C417.329 202.247 417.5 196.655 417.5 191H401.5ZM290 50C347.137 50 401.5 111.529 401.5 191H417.5C417.5 105.89 358.863 34 290 34V50ZM216.123 70.8791C237.601 57.6396 262.896 50 290 50V34C259.847 34 231.657 42.5082 207.727 57.2588L216.123 70.8791ZM259.808 49.0004C242.154 49.036 225.197 51.641 209.584 56.4191L214.266 71.7187C228.344 67.4105 243.733 65.0328 259.841 65.0003L259.808 49.0004ZM259.891 49.0002L259.811 49.0004L259.838 65.0003L259.918 65.0002L259.891 49.0002ZM259.989 49.0001L259.894 49.0002L259.916 65.0002L260.011 65.0001L259.989 49.0001ZM260.171 49L259.996 49.0001L260.004 65.0001L260.179 65L260.171 49ZM397.527 157.495C397.527 94.3977 333.412 49.1477 260.192 49L260.159 65C328.791 65.1385 381.527 106.93 381.527 157.495H397.527ZM399.154 189.892C398.261 178.704 397.527 169.482 397.527 157.495H381.527C381.527 170.189 382.312 179.985 383.204 191.165L399.154 189.892ZM399.151 189.864L399.151 189.864L383.206 191.193L383.207 191.193L399.151 189.864ZM399.167 190.085L399.167 190.085L383.191 190.972L383.191 190.973L399.167 190.085ZM399.156 189.919L399.155 189.912L383.203 191.146L383.203 191.154L399.156 189.919ZM399.595 195.477C399.446 193.557 399.298 191.702 399.154 189.9L383.205 191.173C383.349 192.977 383.496 194.816 383.643 196.715L399.595 195.477ZM416 220C416 205.283 407.382 189.913 392.563 188.152L390.675 204.04C394.221 204.461 400 209.662 400 220H416ZM396.301 251.067C408.814 247.292 416 233.634 416 220H400C400 229.219 395.208 234.685 391.679 235.749L396.301 251.067ZM303.571 355.038C327.597 346.774 351.77 332.376 370.152 313.463C388.542 294.541 401.552 270.63 401.989 243.537L385.991 243.28C385.638 265.182 375.114 285.4 358.678 302.311C342.236 319.23 320.293 332.366 298.367 339.908L303.571 355.038ZM313.607 389.548C311.057 375.737 309.686 359.967 308.957 347.023L292.982 347.923C293.727 361.142 295.145 377.678 297.873 392.452L313.607 389.548ZM359.335 383H305.74V399H359.335V383ZM414.282 403.34C399.74 390.553 380.272 383 359.335 383V399C376.429 399 392.129 405.167 403.718 415.356L414.282 403.34ZM401 207.26V409.348H417V207.26H401ZM134.301 294.165C153.763 323.973 187.731 346.058 220.553 356.397L225.36 341.136C195.227 331.644 164.702 311.459 147.699 285.418L134.301 294.165ZM149 393.353V289.791H133V393.353H149ZM159.994 383C152.793 383 145.757 383.896 139.037 385.597L142.963 401.108C148.404 399.731 154.121 399 159.994 399V383ZM218.26 383H159.994V399H218.26V383ZM214.97 348.297C214.223 361 212.859 376.192 210.393 389.548L226.127 392.452C228.766 378.158 230.179 362.219 230.942 349.236L214.97 348.297Z" fill="#150C0C" mask="url(#path-28-outside-3_26:1421)"/>
<path d="M349.973 91.4147C325.778 127.683 294.157 137.373 264.395 145.475C263.157 145.812 261.92 146.146 260.685 146.48C231.819 154.285 203.959 161.817 190.888 194.515C176.958 229.359 169 269.846 169 313C169 376.466 186.217 434.225 214.39 476.733C181.82 466.2 152.824 440.371 131.286 404.116C107.492 364.062 93 311.573 93 254C93 126.884 163.202 39 247.5 39C288.52 39 327.376 67.1578 349.973 91.4147Z" fill="#150C0C" stroke="#150C0C" stroke-width="8"/>
</g>
<defs>
<clipPath id="clip0_26:1421">
<rect width="519" height="519" rx="259.5" fill="white"/>
</clipPath>
</defs>
</svg>
